{
  "title": "ANT-MAN {2015} NEW HQCAM X264 AAC-MRG ",
  "uid": 12142265,
  "size": 1687524664,
  "categoryP": "video",
  "categoryS": "movies",
  "magnet": "?xt=urn:btih:1ebd9e71a495f717e577c4ded2190afaa01c4222&amp;dn=ANT-MAN+%7B2015%7D+NEW+HQCAM+X264+AAC-MRG+&amp;tr=udp%3A%2F%2Ftracker.openbittorrent.com%3A80&amp;tr=udp%3A%2F%2Fopen.demonii.com%3A1337&amp;tr=udp%3A%2F%2Ftracker.coppersurfer.tk%3A6969&amp;tr=udp%3A%2F%2Fexodus.desync.com%3A6969",
  "seeders": 423,
  "leechers": 116,
  "uploader": "makintos13",
  "files": 17,
  "time": 1437366059,
  "description": "SCREENS:\n &lt;a href=&quot;\nhttp://imgmak.com/Dl&quot; rel=&quot;nofollow&quot; target=&quot;_NEW&quot;&gt;\nhttp://imgmak.com/Dl&lt;/a&gt;\n &lt;a href=&quot;\nhttp://imgmak.com/DV&quot; rel=&quot;nofollow&quot; target=&quot;_NEW&quot;&gt;\nhttp://imgmak.com/DV&lt;/a&gt;\n &lt;a href=&quot;\nhttp://imgmak.com/De&quot; rel=&quot;nofollow&quot; target=&quot;_NEW&quot;&gt;\nhttp://imgmak.com/De&lt;/a&gt;\n &lt;a href=&quot;\nhttp://imgmak.com/Dg&quot; rel=&quot;nofollow&quot; target=&quot;_NEW&quot;&gt;\nhttp://imgmak.com/Dg&lt;/a&gt;\n &lt;a href=&quot;\nhttp://imgmak.com/Do&quot; rel=&quot;nofollow&quot; target=&quot;_NEW&quot;&gt;\nhttp://imgmak.com/Do&lt;/a&gt;\n &lt;a href=&quot;\nhttp://imgmak.com/DN&quot; rel=&quot;nofollow&quot; target=&quot;_NEW&quot;&gt;\nhttp://imgmak.com/DN&lt;/a&gt;\n &lt;a href=&quot;\nhttp://imgmak.com/DQ&quot; rel=&quot;nofollow&quot; target=&quot;_NEW&quot;&gt;\nhttp://imgmak.com/DQ&lt;/a&gt;\n &lt;a href=&quot;\nhttp://imgmak.com/DS&quot; rel=&quot;nofollow&quot; target=&quot;_NEW&quot;&gt;\nhttp://imgmak.com/DS&lt;/a&gt;\n\n::::::::::::::::::::::::::::\n\nANT-MAN {2015} NEW HQCAM X264 AAC-MRG\n\nsample within.............................\n\nFormat : MPEG-4\nFormat profile : Base Media\nCodec ID : isom\nFile size : 1.52 GiB\nDuration : 1h 42mn\nOverall bit rate mode : Variable\nOverall bit rate : 2 127 Kbps\n\n\nVideo\nID : 1\nFormat : AVC\nFormat/Info : Advanced Video Codec\nFormat profile : Baseline@L3\nFormat settings, CABAC : No\nFormat settings, ReFrames : 1 frame\nCodec ID : avc1\nCodec ID/Info : Advanced Video Coding\nDuration : 1h 42mn\nBit rate : 2 000 Kbps\nWidth : 688 pixels\nHeight : 366 pixels\nDisplay aspect ratio : 1.880\nOriginal display aspect rat : 16:9\nFrame rate mode : Variable\nFrame rate : 29.970 fps\nMinimum frame rate : 14.986 fps\nMaximum frame rate : 29.971 fps\nColor space : YUV\nChroma subsampling : 4:2:0\nBit depth : 8 bits\nScan type : Progressive\nBits/(Pixel*Frame) : 0.265\nStream size : 1.42 GiB (94%)\nWriting library : x264 core\n\nAudio\nID : 2\nFormat : AAC\nFormat/Info : Advanced Audio Codec\nFormat profile : LC\nCodec ID : 40\nDuration : 1h 42mn\nBit rate mode : Variable\nBit rate : 123 Kbps\nMaximum bit rate : 128 Kbps\nChannel(s) : 2 channels\nChannel positions : Front: L R\nSampling rate : 48.0 KHz\nCompression mode : Lossy\nStream size : 90.2 MiB (6%)\nLanguage : unk",
  "parsed": {
    "xt": "urn:btih:1ebd9e71a495f717e577c4ded2190afaa01c4222",
    "dn": "ANT-MAN {2015} NEW HQCAM X264 AAC-MRG ",
    "tr": [
      "udp://exodus.desync.com:6969",
      "udp://open.demonii.com:1337",
      "udp://tracker.coppersurfer.tk:6969",
      "udp://tracker.openbittorrent.com:80"
    ],
    "infoHash": "1ebd9e71a495f717e577c4ded2190afaa01c4222",
    "infoHashBuffer": {
      "type": "Buffer",
      "data": [
        30,
        189,
        158,
        113,
        164,
        149,
        247,
        23,
        229,
        119,
        196,
        222,
        210,
        25,
        10,
        250,
        160,
        28,
        66,
        34
      ]
    },
    "name": "ANT-MAN {2015} NEW HQCAM X264 AAC-MRG ",
    "announce": [
      "udp://exodus.desync.com:6969",
      "udp://open.demonii.com:1337",
      "udp://tracker.coppersurfer.tk:6969",
      "udp://tracker.openbittorrent.com:80"
    ],
    "urlList": []
  },
  "previous": 539,
  "peers": 80,
  "last_updated": "2016-12-24T19:10:30.056Z"
}